<svg width="197" height="29" viewBox="0 0 197 29" fill="none" xmlns="http://www.w3.org/2000/svg">
<g clip-path="url(#clip0)">
<path d="M195.26 9.74228H194.837V10.9446H194.58V9.74248H194.158V9.52039H195.26V9.74228ZM195.604 9.49878H195.562V10.9446H195.817V10.0474L196.256 10.5808H196.306L196.742 10.0474V10.9446H197V9.49878H196.959L196.283 10.2699L195.604 9.49878Z" fill="#F57C14"/>
<path d="M9.60445 9.43097C12.2683 9.43097 14.538 10.3842 16.4135 12.2892C18.2888 14.1704 19.2268 16.4701 19.2268 19.1887V28.1634H11.9339V19.3345C11.9339 18.2907 11.7068 17.3985 11.2531 16.6584C10.7987 15.9185 10.2494 15.5477 9.60445 15.5477C8.97109 15.5477 8.42773 15.9185 7.97378 16.6584C7.51963 17.3985 7.29275 18.2907 7.29275 19.3345V28.1638H0V19.1887C0 16.4701 0.937639 14.1706 2.81331 12.2892C4.67677 10.384 6.94042 9.43097 9.60445 9.43097Z" fill="#F57C14"/>
<path d="M26.2477 7.95651C25.4711 8.73324 25.0709 9.30988 25.0471 9.68604V9.72245C25.0471 10.111 25.3876 10.645 26.0684 11.3247L26.8749 12.1441C27.5916 12.8846 27.95 13.7706 27.95 14.8018V28.164H20.5854V14.8014C20.5854 13.7576 20.9438 12.8716 21.6605 12.1437L22.4849 11.3243C23.1537 10.6448 23.4885 10.1044 23.4885 9.70385V9.66743C23.4525 9.30328 23.0523 8.73304 22.2878 7.95611L21.4098 7.04573C20.6094 6.24479 20.2092 5.27418 20.2092 4.1329C20.2092 2.99222 20.6094 2.02742 21.4098 1.23828C22.1861 0.425343 23.1358 0.0183716 24.2589 0.0183716C25.3937 0.0183716 26.3493 0.41894 27.126 1.22008C27.9262 2.02101 28.3266 2.99202 28.3266 4.1329C28.3266 5.28599 27.9262 6.2568 27.126 7.04573L26.2477 7.95651Z" fill="#F57C14"/>
<path d="M40.1422 22.3372C40.4648 21.7181 40.6736 20.9902 40.7695 20.1527H48.0445C47.8413 22.4949 46.9215 24.4851 45.2849 26.1238V26.1422C43.4213 28.0474 41.1754 29.0002 38.5476 29.0002H38.458C35.8178 29.0002 33.5661 28.0474 31.7025 26.1422V26.1238C29.827 24.243 28.8892 21.9611 28.8892 19.2789V19.1877C28.8892 16.5058 29.8268 14.224 31.7025 12.343C33.5659 10.4378 35.8298 9.4848 38.4936 9.4848C41.1456 9.4848 43.4093 10.4378 45.2849 12.343C46.9215 13.9937 47.8411 15.9837 48.0445 18.3141H40.7695C40.6738 17.4766 40.465 16.7485 40.1422 16.1296C39.6764 15.28 39.1268 14.8553 38.4936 14.8553C37.8604 14.8553 37.3169 15.28 36.8631 16.1296C36.409 16.9916 36.1821 18.029 36.1821 19.2425C36.1821 20.4442 36.409 21.4756 36.8631 22.3376C37.3169 23.187 37.8604 23.6181 38.4936 23.6302C39.1268 23.6179 39.6764 23.1868 40.1422 22.3372Z" fill="#F57C14"/>
<path d="M63.3293 20.008L67.0205 25.7424C67.3311 26.2158 67.4865 26.6408 67.4865 27.0167C67.4865 27.1746 67.4625 27.3205 67.4148 27.4537C67.2474 27.9269 66.889 28.1638 66.3397 28.1638H60.319L56.52 22.2475V28.1458H49.2271V13.1265C49.2271 12.1069 49.5855 11.2333 50.3022 10.5048C51.0068 9.78889 51.8611 9.43074 52.8646 9.43074C53.8798 9.43074 54.7398 9.78889 55.4449 10.5048C56.1618 11.2333 56.52 12.1069 56.52 13.1265V17.1318L59.8172 11.1423C60.3306 10.2563 61.0772 9.68584 62.057 9.43074C62.3796 9.3459 62.6959 9.30328 63.0067 9.30328C63.6398 9.30328 64.2431 9.47355 64.8166 9.8129C65.6884 10.3471 66.2499 11.1118 66.5008 12.1067C66.5843 12.4224 66.6263 12.7379 66.6263 13.0533C66.6263 13.6967 66.453 14.3094 66.1065 14.892L63.3293 20.008Z" fill="#F57C14"/>
<path d="M76.0034 9.48456C78.6196 9.48456 80.8773 10.4558 82.7768 12.3974C84.0672 13.7083 84.8376 15.4133 85.0884 17.5129C85.148 18.0226 85.178 18.496 85.178 18.9329C85.178 19.4183 85.1421 19.8553 85.0706 20.2439H73.7638C73.8593 21.008 74.0624 21.6759 74.3731 22.2465C74.8271 23.0961 75.3705 23.5267 76.0038 23.5391C76.6488 23.5391 77.2518 23.1569 77.8135 22.3922C78.0883 22.0042 78.3029 21.6157 78.4583 21.2271H84.9629C84.8912 22.902 84.1862 24.5161 82.8483 26.0697C80.949 28.0116 78.685 28.9828 76.0574 28.9828C73.3695 28.9828 71.0878 28.0296 69.2121 26.1244C67.3368 24.231 66.3992 21.9316 66.3992 19.2251C66.3992 16.5305 67.3368 14.231 69.2121 12.3256C71.0876 10.4314 73.3514 9.48456 76.0034 9.48456ZM78.118 17.4947C77.9864 16.8755 77.8312 16.4023 77.652 16.0745C77.1742 15.201 76.6246 14.7636 76.0036 14.7636C75.3106 14.7636 74.7672 15.1888 74.3729 16.0379C74.1699 16.4751 74.0084 16.9605 73.8891 17.4943L78.118 17.4947Z" fill="#F57C14"/>
<path d="M89.6302 0.000976562C90.6452 0.000976562 91.5053 0.36513 92.2105 1.09324C92.9274 1.80954 93.2856 2.68331 93.2856 3.71494V28.1638H85.9927V3.71474C85.9927 2.68331 86.3448 1.80954 87.0499 1.09304C87.7665 0.36513 88.6268 0.000976562 89.6302 0.000976562Z" fill="#F57C14"/>
<path d="M110.696 12.3064C112.571 14.212 113.509 16.5119 113.509 19.2059C113.509 21.9122 112.571 24.2186 110.696 26.1236C110.635 26.1846 110.522 26.2938 110.355 26.4515C110.212 26.585 110.141 26.658 110.141 26.6698C108.337 28.2112 106.264 28.9824 103.923 28.9824H103.833C101.504 28.9824 99.443 28.2052 97.6513 26.652C97.5317 26.5794 97.3405 26.4035 97.0778 26.124C95.2025 24.219 94.2646 21.9126 94.2646 19.2063C94.2646 16.5119 95.2025 14.2124 97.0778 12.3068C98.953 10.3893 101.223 9.43054 103.887 9.43054C106.55 9.42994 108.82 10.3889 110.696 12.3064ZM105.517 22.319C105.983 21.4574 106.216 20.42 106.216 19.2059C106.216 18.0046 105.983 16.9729 105.517 16.111C105.063 15.2492 104.52 14.8184 103.887 14.8184C103.253 14.8184 102.704 15.2492 102.238 16.111C101.796 16.9849 101.575 18.0162 101.575 19.2059C101.575 20.4074 101.796 21.445 102.238 22.319C102.704 23.1811 103.253 23.6115 103.887 23.6115C104.52 23.6115 105.063 23.1807 105.517 22.319Z" fill="#F57C14"/>
<path d="M130.687 26.142C128.823 28.0472 126.559 29 123.895 29C121.231 29 118.968 28.0472 117.104 26.142C115.229 24.2368 114.291 21.9362 114.291 19.2423C114.291 16.5484 115.229 14.2484 117.104 12.343C118.968 10.4378 121.231 9.48479 123.895 9.48479C124.683 9.48479 125.454 9.58223 126.207 9.77631V3.71376C126.207 2.68233 126.565 1.80856 127.282 1.09206C127.999 0.363953 128.859 0 129.862 0C130.866 0 131.725 0.363953 132.443 1.09226C133.147 1.80856 133.505 2.67613 133.518 3.69555V19.2423C133.518 21.9366 132.574 24.2368 130.687 26.142ZM123.895 23.6297C124.528 23.6297 125.072 23.1994 125.526 22.3372C125.98 21.4878 126.207 20.45 126.207 19.2241C126.207 18.0106 125.98 16.9787 125.526 16.1292C125.071 15.2674 124.528 14.8366 123.895 14.8366C123.25 14.8366 122.707 15.2674 122.265 16.1292C121.81 16.9787 121.584 18.0102 121.584 19.2241C121.584 20.4376 121.81 21.4752 122.265 22.3372C122.707 23.1992 123.25 23.6297 123.895 23.6297Z" fill="#F57C14"/>
<path d="M143.955 9.48456C146.572 9.48456 148.829 10.4558 150.729 12.3974C152.019 13.7083 152.789 15.4133 153.04 17.5129C153.1 18.0226 153.13 18.496 153.13 18.9329C153.13 19.4183 153.094 19.8553 153.022 20.2439H141.716C141.811 21.008 142.014 21.6759 142.325 22.2465C142.779 23.0961 143.322 23.5267 143.955 23.5391C144.6 23.5391 145.204 23.1569 145.765 22.3922C146.04 22.0042 146.255 21.6157 146.41 21.2271H152.914C152.843 22.902 152.138 24.5161 150.8 26.0697C148.901 28.0116 146.637 28.9828 144.009 28.9828C141.321 28.9828 139.04 28.0296 137.164 26.1244C135.288 24.231 134.351 21.9316 134.351 19.2251C134.351 16.5305 135.288 14.231 137.164 12.3256C139.04 10.4314 141.303 9.48456 143.955 9.48456ZM146.07 17.4947C145.938 16.8755 145.783 16.4023 145.604 16.0745C145.126 15.201 144.576 14.7636 143.955 14.7636C143.262 14.7636 142.719 15.1888 142.325 16.0379C142.122 16.4751 141.96 16.9605 141.841 17.4943L146.07 17.4947Z" fill="#F57C14"/>
<path d="M170.472 12.3064C172.347 14.212 173.285 16.5119 173.285 19.2059C173.285 21.9122 172.347 24.2186 170.472 26.1236C170.412 26.1846 170.298 26.2938 170.131 26.4515C169.988 26.585 169.916 26.658 169.916 26.6698C168.113 28.2112 166.039 28.9824 163.699 28.9824H163.609C161.28 28.9824 159.219 28.2052 157.427 26.652C157.307 26.5794 157.116 26.4035 156.853 26.124C154.978 24.219 154.04 21.9126 154.04 19.2063C154.04 16.5119 154.978 14.2124 156.853 12.3068C158.728 10.3893 160.999 9.43054 163.663 9.43054C166.326 9.42994 168.596 10.3889 170.472 12.3064ZM165.293 22.319C165.759 21.4574 165.992 20.42 165.992 19.2059C165.992 18.0046 165.759 16.9729 165.293 16.111C164.839 15.2492 164.296 14.8184 163.663 14.8184C163.029 14.8184 162.48 15.2492 162.014 16.111C161.572 16.9849 161.351 18.0162 161.351 19.2059C161.351 20.4074 161.572 21.445 162.014 22.319C162.48 23.1811 163.029 23.6115 163.663 23.6115C164.295 23.6115 164.839 23.1807 165.293 22.319Z" fill="#F57C14"/>
<path d="M183.742 9.43097C186.406 9.43097 188.676 10.3842 190.551 12.2892C192.426 14.1704 193.364 16.4701 193.364 19.1887V28.1634H186.071V19.3345C186.071 18.2907 185.844 17.3985 185.391 16.6584C184.936 15.9185 184.387 15.5477 183.742 15.5477C183.109 15.5477 182.565 15.9185 182.111 16.6584C181.657 17.3985 181.431 18.2907 181.431 19.3345V28.1638H174.138V19.1887C174.138 16.4701 175.076 14.1704 176.951 12.2892C178.814 10.384 181.078 9.43097 183.742 9.43097Z" fill="#F57C14"/>
</g>
<defs>
<clipPath id="clip0">
<rect width="197" height="29" fill="white"/>
</clipPath>
</defs>
</svg>
